<?xml version="1.0" encoding="UTF-8"?>
<svg data-bbox="0 0 278.299 128.572" viewBox="0 0 279 129" height="129" width="279" xmlns="http://www.w3.org/2000/svg" data-type="shape">
    <g>
        <path d="M208.53 0h15.003v90.453c-.012 21.05-17.017 38.117-37.999 38.117-20.981 0-37.988-17.066-37.994-38.117V0h15v90.453c0 12.735 10.288 23.065 22.98 23.065h.026c12.695 0 22.984-10.33 22.984-23.065zM22.994 90.453V0h15.003v90.453c-.01 21.05-17.016 38.119-37.997 38.119v-15.057h.014c12.69 0 22.98-10.328 22.98-23.062m232.318 0c0 12.734 10.287 23.062 22.976 23.062h.011v15.057c-20.977 0-37.989-17.068-37.993-38.12V0h15.006zM115.759 0h15.003v90.453c-.012 21.05-17.016 38.117-37.999 38.117-20.981 0-37.988-17.066-37.99-38.117V0h15.003v90.453c0 12.735 10.285 23.065 22.975 23.065h.029c12.69 0 22.979-10.33 22.979-23.065z" fill-rule="evenodd"/>
    </g>
</svg>
